<svg width="170" height="170" viewBox="0 0 170 170" fill="none" xmlns="http://www.w3.org/2000/svg">
<path d="M155.312 17.5H141.25V11.875C141.25 8.89131 140.065 6.02983 137.955 3.92005C135.845 1.81026 132.984 0.625 130 0.625C127.016 0.625 124.155 1.81026 122.045 3.92005C119.935 6.02983 118.75 8.89131 118.75 11.875V17.5H96.25V11.875C96.25 8.89131 95.0647 6.02983 92.9549 3.92005C90.8452 1.81026 87.9837 0.625 85 0.625C82.0163 0.625 79.1548 1.81026 77.0451 3.92005C74.9353 6.02983 73.75 8.89131 73.75 11.875V17.5H51.25V11.875C51.25 8.89131 50.0647 6.02983 47.9549 3.92005C45.8452 1.81026 42.9837 0.625 40 0.625C37.0163 0.625 34.1548 1.81026 32.045 3.92005C29.9353 6.02983 28.75 8.89131 28.75 11.875V17.5H14.6875C10.9579 17.5 7.38104 18.9816 4.74381 21.6188C2.10658 24.256 0.625 27.8329 0.625 31.5625V144.062C0.625 147.792 2.10658 151.369 4.74381 154.006C7.38104 156.643 10.9579 158.125 14.6875 158.125H93.4375C94.1834 158.125 94.8988 157.829 95.4262 157.301C95.9537 156.774 96.25 156.058 96.25 155.312C96.25 154.567 95.9537 153.851 95.4262 153.324C94.8988 152.796 94.1834 152.5 93.4375 152.5H14.6875C12.4518 152.493 10.3096 151.602 8.72866 150.021C7.14777 148.44 6.25668 146.298 6.25 144.062V56.875H163.75V104.688C163.75 105.433 164.046 106.149 164.574 106.676C165.101 107.204 165.817 107.5 166.562 107.5C167.308 107.5 168.024 107.204 168.551 106.676C169.079 106.149 169.375 105.433 169.375 104.688V31.5625C169.375 27.8329 167.893 24.256 165.256 21.6188C162.619 18.9816 159.042 17.5 155.312 17.5ZM124.375 11.875C124.375 10.3832 124.968 8.95242 126.023 7.89752C127.077 6.84263 128.508 6.25 130 6.25C131.492 6.25 132.923 6.84263 133.977 7.89752C135.032 8.95242 135.625 10.3832 135.625 11.875V28.75C135.625 30.2418 135.032 31.6726 133.977 32.7275C132.923 33.7824 131.492 34.375 130 34.375C128.508 34.375 127.077 33.7824 126.023 32.7275C124.968 31.6726 124.375 30.2418 124.375 28.75V11.875ZM79.375 11.875C79.375 10.3832 79.9676 8.95242 81.0225 7.89752C82.0774 6.84263 83.5082 6.25 85 6.25C86.4918 6.25 87.9226 6.84263 88.9775 7.89752C90.0324 8.95242 90.625 10.3832 90.625 11.875V28.75C90.625 30.2418 90.0324 31.6726 88.9775 32.7275C87.9226 33.7824 86.4918 34.375 85 34.375C83.5082 34.375 82.0774 33.7824 81.0225 32.7275C79.9676 31.6726 79.375 30.2418 79.375 28.75V11.875ZM34.375 11.875C34.375 10.3832 34.9676 8.95242 36.0225 7.89752C37.0774 6.84263 38.5082 6.25 40 6.25C41.4918 6.25 42.9226 6.84263 43.9775 7.89752C45.0324 8.95242 45.625 10.3832 45.625 11.875V28.75C45.625 30.2418 45.0324 31.6726 43.9775 32.7275C42.9226 33.7824 41.4918 34.375 40 34.375C38.5082 34.375 37.0774 33.7824 36.0225 32.7275C34.9676 31.6726 34.375 30.2418 34.375 28.75V11.875ZM163.75 51.25H6.25V31.5625C6.25668 29.3268 7.14777 27.1846 8.72866 25.6037C10.3096 24.0228 12.4518 23.1317 14.6875 23.125H28.75V28.75C28.75 31.7337 29.9353 34.5952 32.045 36.705C34.1548 38.8147 37.0163 40 40 40C42.9837 40 45.8452 38.8147 47.9549 36.705C50.0647 34.5952 51.25 31.7337 51.25 28.75V23.125H73.75V28.75C73.75 31.7337 74.9353 34.5952 77.0451 36.705C79.1548 38.8147 82.0163 40 85 40C87.9837 40 90.8452 38.8147 92.9549 36.705C95.0647 34.5952 96.25 31.7337 96.25 28.75V23.125H118.75V28.75C118.75 31.7337 119.935 34.5952 122.045 36.705C124.155 38.8147 127.016 40 130 40C132.984 40 135.845 38.8147 137.955 36.705C140.065 34.5952 141.25 31.7337 141.25 28.75V23.125H155.312C157.548 23.1317 159.69 24.0228 161.271 25.6037C162.852 27.1846 163.743 29.3268 163.75 31.5625V51.25Z" fill="#515151"/>
<path d="M79.375 76.5625C79.375 75.0707 78.7824 73.6399 77.7275 72.585C76.6726 71.5301 75.2418 70.9375 73.75 70.9375H62.5C61.0082 70.9375 59.5774 71.5301 58.5225 72.585C57.4676 73.6399 56.875 75.0707 56.875 76.5625V85C56.875 86.4918 57.4676 87.9226 58.5225 88.9775C59.5774 90.0324 61.0082 90.625 62.5 90.625H73.75C75.2418 90.625 76.6726 90.0324 77.7275 88.9775C78.7824 87.9226 79.375 86.4918 79.375 85V76.5625ZM62.5 85V76.5625H73.75V85H62.5Z" fill="#515151"/>
<path d="M45.625 76.5625C45.625 75.0707 45.0324 73.6399 43.9775 72.585C42.9226 71.5301 41.4918 70.9375 40 70.9375H28.75C27.2582 70.9375 25.8274 71.5301 24.7725 72.585C23.7176 73.6399 23.125 75.0707 23.125 76.5625V85C23.125 86.4918 23.7176 87.9226 24.7725 88.9775C25.8274 90.0324 27.2582 90.625 28.75 90.625H40C41.4918 90.625 42.9226 90.0324 43.9775 88.9775C45.0324 87.9226 45.625 86.4918 45.625 85V76.5625ZM28.75 85V76.5625H40V85H28.75Z" fill="#515151"/>
<path d="M141.25 90.625C142.742 90.625 144.173 90.0324 145.227 88.9775C146.282 87.9226 146.875 86.4918 146.875 85V76.5625C146.875 75.0707 146.282 73.6399 145.227 72.585C144.173 71.5301 142.742 70.9375 141.25 70.9375H130C128.508 70.9375 127.077 71.5301 126.023 72.585C124.968 73.6399 124.375 75.0707 124.375 76.5625V85C124.375 86.4918 124.968 87.9226 126.023 88.9775C127.077 90.0324 128.508 90.625 130 90.625H141.25ZM130 76.5625H141.25V85H130V76.5625Z" fill="#515151"/>
<path d="M79.375 101.875C79.375 100.383 78.7824 98.9524 77.7275 97.8975C76.6726 96.8426 75.2418 96.25 73.75 96.25H62.5C61.0082 96.25 59.5774 96.8426 58.5225 97.8975C57.4676 98.9524 56.875 100.383 56.875 101.875V110.312C56.875 111.804 57.4676 113.235 58.5225 114.29C59.5774 115.345 61.0082 115.938 62.5 115.938H73.75C75.2418 115.938 76.6726 115.345 77.7275 114.29C78.7824 113.235 79.375 111.804 79.375 110.312V101.875ZM62.5 110.312V101.875H73.75V110.312H62.5Z" fill="#515151"/>
<path d="M45.625 101.875C45.625 100.383 45.0324 98.9524 43.9775 97.8975C42.9226 96.8426 41.4918 96.25 40 96.25H28.75C27.2582 96.25 25.8274 96.8426 24.7725 97.8975C23.7176 98.9524 23.125 100.383 23.125 101.875V110.312C23.125 111.804 23.7176 113.235 24.7725 114.29C25.8274 115.345 27.2582 115.938 28.75 115.938H40C41.4918 115.938 42.9226 115.345 43.9775 114.29C45.0324 113.235 45.625 111.804 45.625 110.312V101.875ZM28.75 110.312V101.875H40V110.312H28.75Z" fill="#515151"/>
<path d="M73.75 121.562H62.5C61.0082 121.562 59.5774 122.155 58.5225 123.21C57.4676 124.265 56.875 125.696 56.875 127.188V135.625C56.875 137.117 57.4676 138.548 58.5225 139.602C59.5774 140.657 61.0082 141.25 62.5 141.25H73.75C75.2418 141.25 76.6726 140.657 77.7275 139.602C78.7824 138.548 79.375 137.117 79.375 135.625V127.188C79.375 125.696 78.7824 124.265 77.7275 123.21C76.6726 122.155 75.2418 121.562 73.75 121.562ZM62.5 135.625V127.188H73.75V135.625H62.5Z" fill="#515151"/>
<path d="M96.25 90.625H107.5C108.992 90.625 110.423 90.0324 111.477 88.9775C112.532 87.9226 113.125 86.4918 113.125 85V76.5625C113.125 75.0707 112.532 73.6399 111.477 72.585C110.423 71.5301 108.992 70.9375 107.5 70.9375H96.25C94.7582 70.9375 93.3274 71.5301 92.2725 72.585C91.2176 73.6399 90.625 75.0707 90.625 76.5625V85C90.625 86.4918 91.2176 87.9226 92.2725 88.9775C93.3274 90.0324 94.7582 90.625 96.25 90.625ZM96.25 76.5625H107.5V85H96.25V76.5625Z" fill="#515151"/>
<path d="M90.625 110.312C90.625 111.804 91.2176 113.235 92.2725 114.29C93.3274 115.345 94.7582 115.938 96.25 115.938C96.9959 115.938 97.7113 115.641 98.2387 115.114C98.7662 114.586 99.0625 113.871 99.0625 113.125C99.0625 112.379 98.7662 111.664 98.2387 111.136C97.7113 110.609 96.9959 110.312 96.25 110.312V101.875H107.5C108.246 101.875 108.961 101.579 109.489 101.051C110.016 100.524 110.312 99.8084 110.312 99.0625C110.312 98.3166 110.016 97.6012 109.489 97.0738C108.961 96.5463 108.246 96.25 107.5 96.25H96.25C94.7582 96.25 93.3274 96.8426 92.2725 97.8975C91.2176 98.9524 90.625 100.383 90.625 101.875V110.312Z" fill="#515151"/>
<path d="M40 121.562H28.75C27.2582 121.562 25.8274 122.155 24.7725 123.21C23.7176 124.265 23.125 125.696 23.125 127.188V135.625C23.125 137.117 23.7176 138.548 24.7725 139.602C25.8274 140.657 27.2582 141.25 28.75 141.25H40C41.4918 141.25 42.9226 140.657 43.9775 139.602C45.0324 138.548 45.625 137.117 45.625 135.625V127.188C45.625 125.696 45.0324 124.265 43.9775 123.21C42.9226 122.155 41.4918 121.562 40 121.562ZM28.75 135.625V127.188H40V135.625H28.75Z" fill="#515151"/>
<path d="M132.813 96.25C125.581 96.25 118.512 98.3944 112.499 102.412C106.487 106.429 101.801 112.14 99.0332 118.821C96.2658 125.502 95.5418 132.853 96.9526 139.945C98.3633 147.038 101.846 153.553 106.959 158.666C112.072 163.779 118.587 167.262 125.68 168.672C132.772 170.083 140.123 169.359 146.804 166.592C153.485 163.825 159.196 159.138 163.213 153.126C167.231 147.113 169.375 140.044 169.375 132.812C169.364 123.119 165.508 113.826 158.654 106.971C151.799 100.117 142.506 96.2612 132.813 96.25ZM132.813 163.75C126.694 163.75 120.712 161.936 115.625 158.536C110.537 155.137 106.572 150.305 104.23 144.652C101.888 138.999 101.276 132.778 102.469 126.777C103.663 120.776 106.61 115.263 110.936 110.936C115.263 106.61 120.776 103.663 126.777 102.469C132.778 101.276 138.999 101.888 144.652 104.23C150.305 106.572 155.137 110.537 158.536 115.625C161.936 120.712 163.75 126.694 163.75 132.812C163.74 141.015 160.478 148.878 154.678 154.678C148.878 160.478 141.015 163.74 132.813 163.75Z" fill="#515151"/>
<path d="M149.063 121.022L127.188 142.898L117.245 132.953C116.715 132.441 116.005 132.157 115.267 132.164C114.53 132.17 113.824 132.466 113.303 132.987C112.781 133.509 112.486 134.214 112.479 134.952C112.473 135.689 112.756 136.399 113.269 136.93L125.199 148.863C125.727 149.391 126.442 149.687 127.188 149.687C127.933 149.687 128.649 149.391 129.176 148.863L153.04 124.999C153.552 124.469 153.836 123.758 153.829 123.021C153.823 122.284 153.527 121.578 153.006 121.057C152.484 120.535 151.779 120.239 151.041 120.233C150.304 120.227 149.594 120.51 149.063 121.022Z" fill="#515151"/>
</svg>
