<svg width="164" height="188" viewBox="0 0 164 188" fill="none" xmlns="http://www.w3.org/2000/svg">
<path d="M157 47.0507V34.6253C157 33.7965 156.671 33.0017 156.085 32.4156C155.499 31.8296 154.704 31.5003 153.875 31.5003H142.321L129.672 23.0675C131.451 21.8526 132.885 20.1987 133.836 18.2663C134.787 16.3338 135.222 14.1883 135.1 12.038C134.978 9.8877 134.302 7.80548 133.138 5.99335C131.974 4.18122 130.361 2.70067 128.456 1.69532C126.552 0.689972 124.419 0.193944 122.266 0.255348C120.113 0.316753 118.013 0.933506 116.169 2.04579C114.324 3.15807 112.799 4.72812 111.74 6.60365C110.681 8.47919 110.125 10.5965 110.125 12.7503C110.125 13.5792 110.454 14.374 111.04 14.9601C111.626 15.5461 112.421 15.8753 113.25 15.8753C114.079 15.8753 114.874 15.5461 115.46 14.9601C116.046 14.374 116.375 13.5792 116.375 12.7503C116.375 11.5142 116.742 10.3058 117.428 9.27804C118.115 8.25023 119.091 7.44915 120.233 6.9761C121.375 6.50305 122.632 6.37928 123.844 6.62044C125.057 6.8616 126.17 7.45685 127.044 8.33093C127.919 9.20501 128.514 10.3187 128.755 11.531C128.996 12.7434 128.872 14.0001 128.399 15.1421C127.926 16.2842 127.125 17.2603 126.097 17.947C125.07 18.6338 123.861 19.0004 122.625 19.0004C122.008 19.0002 121.405 19.1829 120.891 19.5254L102.929 31.5003H91.375C91.3359 31.5003 91.2996 31.5046 91.2617 31.5062C91.1711 31.5062 91.0812 31.5003 90.9906 31.5003H76.6961L64.0469 23.0675C65.8254 21.8527 67.2598 20.1988 68.2108 18.2663C69.1619 16.3339 69.5974 14.1884 69.4752 12.038C69.3529 9.88768 68.6769 7.80543 67.5129 5.99325C66.3488 4.18107 64.7362 2.70048 62.8314 1.6951C60.9266 0.689723 58.7943 0.193677 56.6414 0.255081C54.4884 0.316485 52.3879 0.933254 50.5435 2.04556C48.6991 3.15787 47.1735 4.72796 46.1146 6.60354C45.0557 8.47912 44.4995 10.5965 44.5 12.7503C44.5 13.5792 44.8292 14.374 45.4153 14.9601C46.0013 15.5461 46.7962 15.8753 47.625 15.8753C48.4538 15.8753 49.2487 15.5461 49.8347 14.9601C50.4208 14.374 50.75 13.5792 50.75 12.7503C50.75 11.5142 51.1166 10.3058 51.8033 9.27804C52.4901 8.25023 53.4662 7.44915 54.6082 6.9761C55.7503 6.50305 57.0069 6.37928 58.2193 6.62044C59.4317 6.8616 60.5453 7.45685 61.4194 8.33093C62.2935 9.20501 62.8888 10.3187 63.1299 11.531C63.3711 12.7434 63.2473 14.0001 62.7742 15.1421C62.3012 16.2842 61.5001 17.2603 60.4723 17.947C59.4445 18.6338 58.2361 19.0004 57 19.0004C56.3829 19.0002 55.7797 19.1829 55.2664 19.5254L37.3039 31.5003H23.0094C19.524 31.4969 16.1379 32.6605 13.3909 34.8057C10.644 36.9508 8.69442 39.954 7.85312 43.3363C7.82838 43.4334 7.80859 43.5317 7.79375 43.6312L0.785937 90.4125C0.762488 90.5657 0.750476 90.7204 0.75 90.8754V153.375C0.75 154.204 1.07924 154.999 1.66529 155.585C2.25134 156.171 3.0462 156.5 3.875 156.5H22.625C23.4538 156.5 24.2487 156.171 24.8347 155.585C25.4208 154.999 25.75 154.204 25.75 153.375V150.25H44.5C45.3288 150.25 46.1237 149.921 46.7097 149.335C47.2958 148.749 47.625 147.954 47.625 147.125V144H66.375V147.125C66.375 147.954 66.7042 148.749 67.2903 149.335C67.8763 149.921 68.6712 150.25 69.5 150.25H83.559L82.0031 184.484C81.984 184.905 82.0505 185.327 82.1988 185.722C82.347 186.118 82.5739 186.479 82.8656 186.784C83.1574 187.09 83.5081 187.333 83.8964 187.499C84.2847 187.665 84.7027 187.75 85.125 187.75H160.125C160.547 187.75 160.965 187.665 161.354 187.499C161.742 187.333 162.093 187.09 162.384 186.784C162.676 186.479 162.903 186.118 163.051 185.722C163.199 185.327 163.266 184.905 163.247 184.484L157 47.0507ZM151.299 59.2851C148.868 58.5886 147.087 56.814 145.894 53.9121C145.419 52.7308 145.067 51.5037 144.844 50.2504H150.889L151.299 59.2851ZM150.75 44.0003H106.263L106.208 43.6308C106.193 43.5316 106.173 43.4333 106.148 43.3359C105.644 41.3154 104.741 39.4161 103.492 37.75H150.75V44.0003ZM122.625 25.8812L131.054 31.5003H114.196L122.625 25.8812ZM84.6074 37.7503L83.1621 47.1496C82.988 48.2748 82.4853 49.3234 81.7171 50.1639C80.949 51.0043 79.9497 51.5991 78.8447 51.8736C77.7396 52.148 76.5782 52.0898 75.5061 51.7064C74.434 51.3229 73.4991 50.6313 72.8187 49.7183C75.9624 46.434 78.002 42.2499 78.6527 37.7503H84.6074ZM41.6894 37.7503H72.3125C71.5934 41.2804 69.6765 44.4535 66.8865 46.7325C64.0964 49.0115 60.6045 50.2564 57.002 50.2564C53.3994 50.2564 49.9075 49.0115 47.1174 46.7325C44.3274 44.4535 42.4105 41.2804 41.6914 37.7503H41.6894ZM57 25.8812L65.4289 31.5003H48.5711L57 25.8812ZM35.3473 37.7503C35.9982 42.25 38.0381 46.4341 41.182 49.7183C40.5017 50.6313 39.5668 51.3229 38.4947 51.7064C37.4226 52.0898 36.2612 52.148 35.1561 51.8736C34.0511 51.5991 33.0518 51.0043 32.2837 50.1639C31.5155 49.3234 31.0128 48.2748 30.8387 47.1496L29.3926 37.7503H35.3473ZM41.375 144H25.75V84.6254C25.75 83.7965 25.4208 83.0017 24.8347 82.4156C24.2487 81.8296 23.4538 81.5004 22.625 81.5004C21.7962 81.5004 21.0013 81.8296 20.4153 82.4156C19.8292 83.0017 19.5 83.7965 19.5 84.6254V150.25H7V91.1097L13.9496 44.7164C14.4785 42.7178 15.6542 40.9505 17.2931 39.6904C18.932 38.4302 20.942 37.7481 23.0094 37.7503H23.0688L24.6613 48.1019C25.0205 50.635 26.1912 52.9834 27.9977 54.795C29.8042 56.6067 32.1492 57.7839 34.6812 58.1504C36.9451 58.5199 39.2674 58.2353 41.375 57.33V144ZM47.625 137.75V54.3836C50.5538 55.7772 53.7565 56.5003 57 56.5003C60.2435 56.5003 63.4462 55.7772 66.375 54.3836V137.75H47.625ZM72.625 57.3289C74.7327 58.2339 77.0549 58.5185 79.3187 58.1492C81.8506 57.7828 84.1956 56.6057 86.002 54.7943C87.8085 52.9829 88.9792 50.6348 89.3387 48.1019L90.9313 37.7503H90.9906C93.058 37.7481 95.068 38.4302 96.7069 39.6904C98.3458 40.9505 99.5215 42.7178 100.05 44.7164L107 91.1097V150.25H94.5V84.6254C94.5 83.7965 94.1708 83.0017 93.5847 82.4156C92.9987 81.8296 92.2038 81.5004 91.375 81.5004C90.5462 81.5004 89.7513 81.8296 89.1653 82.4156C88.5792 83.0017 88.25 83.7965 88.25 84.6254V144H72.625V57.3289ZM119.5 181.5H88.3953L89.5582 155.914C90.0872 156.296 90.7229 156.501 91.375 156.5H110.125C110.954 156.5 111.749 156.171 112.335 155.585C112.921 154.999 113.25 154.204 113.25 153.375V90.8754C113.25 90.7203 113.239 90.5654 113.216 90.4121L107.199 50.2504H119.5V181.5ZM125.75 181.5V50.2504H138.512C138.79 52.2526 139.301 54.2154 140.036 56.0984C142.249 61.6308 146.305 64.9808 151.592 65.7187L156.855 181.5H125.75Z" fill="#515151"/>
</svg>
