<svg width="47" height="47" viewBox="0 0 47 47" fill="none" xmlns="http://www.w3.org/2000/svg">
<g clip-path="url(#clip0)">
<path d="M39.4851 16.3782L39.4792 16.3649C39.3628 16.1038 39.1481 15.8977 38.8825 15.7925L17.5645 7.36128C17.3336 7.26938 17.0787 7.25999 16.8411 7.33231C16.6869 7.38028 16.5405 7.44231 16.378 7.51471C7.56343 11.4418 3.58743 21.8073 7.51452 30.6218C11.4416 39.4364 21.8071 43.4124 30.6216 39.4853C39.4362 35.5582 43.4122 25.1927 39.4851 16.3782Z" fill="#515151"/>
<path d="M39.5674 16.7965C39.569 16.3488 39.2932 15.9448 38.8776 15.7787L17.5596 7.34749C17.1413 7.18262 16.6652 7.28936 16.3594 7.61717C16.0572 7.93861 15.9781 8.4097 16.1567 8.81066L16.1668 8.83331C20.1807 17.3123 30.1558 21.2578 38.8757 17.8135C39.293 17.65 39.5676 17.245 39.5674 16.7965Z" fill="#656565"/>
<path d="M25.6974 17.77C21.6379 16.1477 18.1657 13.052 16.1679 8.83317L16.1578 8.81053C15.9792 8.40956 16.0583 7.93848 16.3592 7.61763C16.438 7.53301 16.5272 7.46452 16.6243 7.41009C16.5446 7.44244 16.464 7.47672 16.3788 7.5147C7.56422 11.4418 3.58822 21.8073 7.51531 30.6218C9.47856 35.0284 13.0507 38.2265 17.235 39.8315L25.6974 17.77Z" fill="#444343"/>
<path d="M28.0958 11.5158L17.5587 7.34807C17.2475 7.22649 16.9055 7.25434 16.6237 7.41022C16.5266 7.46465 16.4374 7.53313 16.3586 7.61775C16.0577 7.9386 15.9786 8.40969 16.1572 8.81065L16.1679 8.83463C18.165 13.0521 21.6379 16.1492 25.6974 17.7715L28.0958 11.5158Z" fill="#515151"/>
<path d="M26.9824 28.6731L24.6004 27.7594L25.1226 26.398L27.5052 27.3131C28.0694 27.5295 28.7021 27.2476 28.9185 26.6834C29.135 26.1192 28.8531 25.4864 28.2889 25.27L25.9063 24.355L26.4285 22.9936L28.8105 23.9073C29.3747 24.1237 30.0074 23.8418 30.2238 23.2776C30.4403 22.7134 30.1583 22.0806 29.5942 21.8642L26.1897 20.5583C25.9182 20.4542 25.6182 20.4617 25.3531 20.5798C25.088 20.6979 24.8805 20.9165 24.7777 21.1874L23.4725 24.59L23.4718 24.5919L23.471 24.5938L22.1659 27.9963C22.0581 28.2775 22.0734 28.5771 22.1874 28.8329C22.3013 29.0887 22.5125 29.3011 22.795 29.4084L26.1994 30.7142C26.7636 30.9307 27.3964 30.6488 27.6128 30.0846C27.8285 29.5223 27.5466 28.8895 26.9824 28.6731Z" fill="#FAFAFA"/>
<path d="M33.1106 31.0251L30.728 30.1101L31.2502 28.7487L33.6335 29.6618C34.1977 29.8782 34.8305 29.5963 35.0469 29.0321C35.2633 28.4679 34.9814 27.8351 34.4172 27.6187L32.0339 26.7056L32.5568 25.3423L34.9394 26.2573C35.5036 26.4737 36.1363 26.1918 36.3528 25.6276C36.5692 25.0634 36.2873 24.4307 35.7231 24.2143L32.3186 22.9084C32.0471 22.8042 31.7471 22.8118 31.482 22.9299C31.2169 23.048 31.0094 23.2666 30.9066 23.5375L29.6007 26.9419L29.6 26.9438L29.5986 26.9444L28.2935 30.347C28.1857 30.6281 28.201 30.9278 28.315 31.1836C28.4289 31.4393 28.6401 31.6518 28.9226 31.759L32.327 33.0649C32.8912 33.2813 33.524 32.9994 33.7404 32.4352C33.9561 31.8729 33.6748 31.2415 33.1106 31.0251Z" fill="#FAFAFA"/>
<path d="M21.4638 26.8998L20.3872 24.4833C21.6777 24.6316 22.9567 23.8973 23.4441 22.6297C24.0202 21.1277 23.2651 19.4365 21.7651 18.8611L20.0629 18.2082C19.7914 18.104 19.4914 18.1116 19.2263 18.2297C18.9612 18.3478 18.7537 18.5664 18.6508 18.8373L17.3546 22.2167L17.3368 22.2629L16.0398 25.6443C15.932 25.9254 15.9473 26.2251 16.0613 26.4808C16.1752 26.7366 16.3864 26.949 16.6689 27.0563C17.2331 27.2727 17.8659 26.9908 18.0823 26.4266L18.442 25.4888L19.4657 27.7867C19.7114 28.3382 20.3584 28.5864 20.9099 28.3407C21.4613 28.0982 21.7095 27.4512 21.4638 26.8998ZM20.4598 22.2669L19.7781 22.0054L20.3004 20.644L20.982 20.9055C21.3562 21.0501 21.5476 21.4726 21.4016 21.8473C21.257 22.2215 20.836 22.409 20.4598 22.2669Z" fill="#FAFAFA"/>
<path d="M16.6641 21.9815C16.8805 21.4173 16.598 20.7832 16.0344 20.5681L13.6511 19.655L14.174 18.2917L16.5566 19.2067C17.1208 19.4231 17.7535 19.1412 17.9699 18.577C18.1863 18.0128 17.9044 17.3801 17.3402 17.1637L13.9358 15.8578C13.6643 15.7536 13.3643 15.7612 13.0992 15.8793C12.8341 15.9974 12.6266 16.216 12.5238 16.4869L11.2179 19.8913L11.2166 19.8919L11.2172 19.8932L9.91068 23.2964C9.80284 23.5775 9.81821 23.8772 9.93216 24.1329C10.0461 24.3887 10.2573 24.6011 10.5398 24.7084C11.104 24.9248 11.7367 24.6429 11.9531 24.0787L12.8668 21.6967L15.2501 22.6098C15.8149 22.8276 16.4476 22.5457 16.6641 21.9815Z" fill="#FAFAFA"/>
<path d="M28.7585 26.9641L23.3572 24.8923L22.1671 27.9976C22.0593 28.2788 22.0747 28.5785 22.1886 28.8342C22.3026 29.09 22.5138 29.3024 22.7962 29.4097L26.2007 30.7156C26.7649 30.932 27.3976 30.6501 27.614 30.0859C27.7219 29.8047 27.7065 29.5051 27.5926 29.2493C27.4786 28.9935 27.2674 28.7811 26.9849 28.6738L24.5997 27.76L25.1219 26.3986L27.5045 27.3136C27.9641 27.4888 28.4698 27.3338 28.7585 26.9641Z" fill="#DADADA"/>
<path d="M34.886 29.3149L29.4828 27.2423L28.2928 30.3477C28.1849 30.6289 28.2003 30.9286 28.3142 31.1843C28.4282 31.4401 28.6394 31.6525 28.9219 31.7598L32.3263 33.0657C32.8905 33.2821 33.5233 33.0002 33.7397 32.436C33.8475 32.1548 33.8321 31.8552 33.7182 31.5994C33.6042 31.3436 33.393 31.1312 33.1106 31.0239L30.728 30.1089L31.2495 28.7495L33.6328 29.6625C34.093 29.8391 34.5973 29.6846 34.886 29.3149Z" fill="#DADADA"/>
<path d="M21.7964 24.2942L17.2289 22.5422L16.0382 25.6463C15.9304 25.9274 15.9458 26.2271 16.0597 26.4829C16.1737 26.7386 16.3849 26.9511 16.6673 27.0583C17.2315 27.2747 17.8643 26.9928 18.0807 26.4286L18.4404 25.4908L19.4642 27.7887C19.7099 28.3402 20.3569 28.5884 20.9084 28.3427C21.4599 28.097 21.708 27.45 21.4623 26.8985L20.3858 24.4821C20.8709 24.5389 21.3558 24.4698 21.7964 24.2942Z" fill="#DADADA"/>
<path d="M16.5026 22.2628L11.1013 20.191L9.90993 23.2969C9.80209 23.5781 9.81746 23.8778 9.93141 24.1335C10.0454 24.3893 10.2566 24.6017 10.539 24.709C11.1032 24.9254 11.736 24.6435 11.9524 24.0793L12.8661 21.6973L15.2494 22.6104C15.7096 22.7869 16.2152 22.6319 16.5026 22.2628Z" fill="#DADADA"/>
</g>
<defs>
<clipPath id="clip0">
<rect width="35" height="35" fill="white" transform="translate(32.3633 0.392883) rotate(65.9859)"/>
</clipPath>
</defs>
</svg>
