<svg width="332" height="378" viewBox="0 0 332 378" fill="none" xmlns="http://www.w3.org/2000/svg">
<g filter="url(#filter0_d)">
<path d="M200.533 34.6875V60.7826H131.158V34.6875C131.158 15.5299 146.688 0 165.846 0C175.428 0 184.1 3.88066 190.373 10.1605C196.653 16.4332 200.533 25.1051 200.533 34.6875Z" fill="#FFC83E"/>
<path d="M200.533 34.6875V60.7826H165.846V0C175.428 0 184.1 3.88066 190.373 10.1605C196.653 16.4332 200.533 25.1051 200.533 34.6875Z" fill="#FFAE3A"/>
<path d="M249.141 128.864V140.585L165.848 156.368H165.833L82.5254 140.585V128.864C82.5254 82.8524 119.822 45.5562 165.833 45.5562H165.848C211.845 45.5634 249.141 82.8597 249.141 128.864Z" fill="#FFE079"/>
<path d="M249.139 128.864V140.585L165.846 156.368V45.5562C211.843 45.5634 249.139 82.8597 249.139 128.864Z" fill="#FFC83E"/>
<path d="M327.692 370H260.991L166.222 359.161L165.846 359.204L71.4744 370H4L31.5766 302.273L123.636 277.508L133.63 245.624H198.062L208.056 277.508L300.116 302.273L327.692 370Z" fill="#FFDBD3"/>
<path d="M327.692 370H260.991L166.221 359.161L165.846 359.204V245.624H198.062L208.056 277.508L300.115 302.273L327.692 370Z" fill="#FFD1C9"/>
<path d="M263.016 346.615L260.971 370H71.4762L69.4238 346.615C81.998 331.591 98.7131 323.771 115.609 323.771C126.774 323.771 138.018 327.19 148.193 334.199L165.848 346.354L166.224 346.615L184.247 334.199C209.836 316.574 242.139 321.669 263.016 346.615Z" fill="#8DBDAD"/>
<path d="M263.014 346.615L260.969 370H165.846V346.354L166.221 346.615L184.245 334.199C209.834 316.574 242.137 321.669 263.014 346.615Z" fill="#699C8B"/>
<path d="M223.133 138.707H238.848C254.608 138.707 267.384 151.482 267.384 167.242C267.384 183.002 254.608 195.778 238.848 195.778H213.016L223.133 138.707Z" fill="#FFD1C9"/>
<path d="M117.232 195.778H92.8441C77.0844 195.778 64.3086 183.002 64.3086 167.242C64.3086 151.482 77.0844 138.707 92.8441 138.707H117.232V195.778Z" fill="#FFD1C9"/>
<path d="M68.1699 220.541L77.3528 179.239L98.5121 183.944L89.3293 225.246L68.1699 220.541Z" fill="#9B9B9B"/>
<path d="M233.996 187.155L255.155 182.45L263.549 220.201L242.39 224.906L233.996 187.155Z" fill="#9B9B9B"/>
<path d="M223.132 138.75V195.775C223.132 229.458 197.485 256.76 165.847 256.76C150.029 256.76 135.705 249.938 125.343 238.896C114.972 227.861 108.562 212.62 108.562 195.775V138.75C108.562 130.671 111.836 123.365 117.126 118.075C122.416 112.785 129.729 109.511 137.801 109.511C145.693 118.494 155.261 125.626 165.847 130.584C166.209 130.765 166.577 130.931 166.939 131.097C177.952 136.083 190.013 138.75 202.385 138.75H223.132Z" fill="#FFD8CD"/>
<path d="M223.131 138.75V195.775C223.131 229.458 197.484 256.76 165.846 256.76V130.584C166.207 130.765 166.576 130.931 166.937 131.097C177.95 136.083 190.011 138.75 202.383 138.75H223.131Z" fill="#FFCBC0"/>
</g>
<defs>
<filter id="filter0_d" x="0" y="0" width="331.692" height="378" filterUnits="userSpaceOnUse" color-interpolation-filters="sRGB">
<feFlood flood-opacity="0" result="BackgroundImageFix"/>
<feColorMatrix in="SourceAlpha" type="matrix" values="0 0 0 0 0 0 0 0 0 0 0 0 0 0 0 0 0 0 127 0"/>
<feOffset dy="4"/>
<feGaussianBlur stdDeviation="2"/>
<feColorMatrix type="matrix" values="0 0 0 0 0 0 0 0 0 0 0 0 0 0 0 0 0 0 0.25 0"/>
<feBlend mode="normal" in2="BackgroundImageFix" result="effect1_dropShadow"/>
<feBlend mode="normal" in="SourceGraphic" in2="effect1_dropShadow" result="shape"/>
</filter>
</defs>
</svg>
