<svg width="180" height="123" viewBox="0 0 180 123" fill="none" xmlns="http://www.w3.org/2000/svg">
<path d="M174.226 101.679L93.3962 51.9623V40.4151C103.585 38.8113 111.396 30.4717 111.396 20.2075C111.396 8.98113 101.887 0 90 0C78.1132 0 68.6038 8.98113 68.6038 20.2075C68.6038 22.1321 69.9623 23.4151 72 23.4151C74.0377 23.4151 75.3962 22.1321 75.3962 20.2075C75.3962 12.5094 81.8491 6.4151 90 6.4151C98.1509 6.4151 104.604 12.5094 104.604 20.2075C104.604 27.9057 98.1509 34 90 34C87.9623 34 86.6038 35.283 86.6038 37.2076V51.9623L5.43396 102C2.03774 104.245 0 107.774 0 111.623C0 117.717 4.75472 122.528 10.8679 122.849H168.792C174.906 122.528 180 117.717 180 111.623C180 107.453 177.623 103.925 174.226 101.679ZM167.774 116.755H12.2264C9.16981 116.755 6.79245 114.509 6.79245 111.623C6.79245 110.019 7.81132 108.415 9.16981 107.453L90 57.4151L170.491 106.811C172.189 107.774 173.547 109.377 173.547 111.302C173.208 114.509 170.83 116.755 167.774 116.755Z" fill="#515151"/>
</svg>
