<svg width="32" height="32" viewBox="0 0 32 32" fill="none" xmlns="http://www.w3.org/2000/svg">
<path d="M27.3093 4.68628C24.2878 1.66431 20.2705 0 15.9976 0C13.1816 0 10.4126 0.741943 7.98975 2.14575C7.76587 2.27563 7.68945 2.56226 7.81934 2.78638C7.94897 3.01025 8.23584 3.08691 8.45972 2.95703C10.74 1.63574 13.3464 0.9375 15.9976 0.9375C20.02 0.9375 23.802 2.50415 26.6465 5.34912C29.491 8.19409 31.0574 11.9768 31.0574 16C31.0574 20.0234 29.491 23.8059 26.6465 26.6509C23.802 29.4956 20.02 31.0625 15.9976 31.0625C11.9749 31.0625 8.19287 29.4958 5.34839 26.6509C2.50391 23.8059 0.9375 20.0234 0.9375 16C0.9375 11.3325 3.04883 7.00464 6.72974 4.12646C6.93384 3.96704 6.96973 3.67236 6.8103 3.46851C6.65088 3.2644 6.3562 3.22852 6.15234 3.38794C4.27905 4.85254 2.72998 6.74854 1.67212 8.87061C0.5625 11.0964 0 13.4951 0 16C0 20.2737 1.66406 24.2917 4.68555 27.3137C7.70703 30.3357 11.7244 32 15.9976 32C20.2705 32 24.2878 30.3357 27.3093 27.3137C30.3308 24.2917 31.9949 20.2737 31.9949 16C31.9949 11.7263 30.3308 7.70825 27.3093 4.68628Z" fill="#E5E5E5"/>
<path d="M9.22559 21.9312H17.9011C18.1599 21.9312 18.3699 21.7214 18.3699 21.4624C18.3699 21.2036 18.1599 20.9937 17.9011 20.9937H9.22559C8.71558 20.9937 8.30078 20.5789 8.30078 20.0686V11.9309C8.30078 11.7988 8.32886 11.6736 8.37891 11.5601L15.2732 16.9531C15.4863 17.1199 15.7417 17.2031 15.9971 17.2031C16.2524 17.2031 16.5078 17.1199 16.7209 16.9531L23.6155 11.5598C23.6655 11.6736 23.6936 11.7988 23.6936 11.9309V20.0686C23.6936 20.5789 23.2788 20.9939 22.7688 20.9939H20.0459C19.7869 20.9939 19.5771 21.2036 19.5771 21.4626C19.5771 21.7214 19.7869 21.9314 20.0459 21.9314H22.7688C23.7957 21.9314 24.6311 21.0957 24.6311 20.0686V11.9309C24.6311 11.4978 24.4824 11.0994 24.2336 10.7827C24.2192 10.6733 24.167 10.5715 24.0837 10.4963C23.7783 10.2202 23.3843 10.0684 22.9746 10.0684H9.01978C8.60986 10.0684 8.21606 10.2205 7.9104 10.4966C7.82739 10.5715 7.77515 10.6736 7.76074 10.7827C7.51196 11.0994 7.36328 11.498 7.36328 11.9309V20.0688C7.36328 21.0957 8.19873 21.9312 9.22559 21.9312ZM22.7688 11.0059C22.7795 11.0059 22.7898 11.0071 22.8003 11.0073L16.1433 16.2146C16.0574 16.282 15.937 16.282 15.8508 16.2146L9.19385 11.0073C9.20459 11.0068 9.21484 11.0056 9.22559 11.0056H22.7688V11.0059Z" fill="#E5E5E5"/>
</svg>
