<svg width="169" height="158" viewBox="0 0 169 158" fill="none" xmlns="http://www.w3.org/2000/svg">
<path d="M163.117 81.5967C163.063 80.8902 162.743 80.2302 162.224 79.7488C161.704 79.2674 161.021 79 160.312 79H119.957L118.121 42.2969C118.085 41.5762 117.774 40.897 117.251 40.3997C116.728 39.9024 116.034 39.625 115.312 39.625H95.625V25.5625C95.6264 21.5126 94.6557 17.5216 92.7945 13.9247C90.9332 10.3278 88.2358 7.23026 84.9289 4.89228C81.622 2.55431 77.8023 1.04424 73.7906 0.488966C69.779 -0.0663028 65.6926 0.349451 61.875 1.70129C58.0574 0.349451 53.971 -0.0663028 49.9594 0.488966C45.9477 1.04424 42.128 2.55431 38.8211 4.89228C35.5142 7.23026 32.8168 10.3278 30.9555 13.9247C29.0943 17.5216 28.1236 21.5126 28.125 25.5625V39.625H8.4375C7.71593 39.625 7.02195 39.9024 6.49912 40.3997C5.97629 40.897 5.6646 41.5762 5.62852 42.2969L0.00351799 154.797C-0.0155412 155.178 0.0429873 155.558 0.175549 155.916C0.30811 156.273 0.511938 156.6 0.774651 156.876C1.03736 157.152 1.35348 157.372 1.7038 157.522C2.05411 157.673 2.43132 157.75 2.8125 157.75H165.938C166.325 157.75 166.708 157.67 167.064 157.515C167.419 157.36 167.738 157.133 168.001 156.849C168.265 156.564 168.466 156.228 168.594 155.862C168.721 155.496 168.772 155.108 168.742 154.722L163.117 81.5967ZM154.688 143.133L160.682 152.125H148.694L154.688 143.133ZM162.308 144.423L157.416 137.086L152.17 84.625H157.708L162.308 144.423ZM146.517 84.625L151.791 137.34L145.617 146.598L140.85 84.625H146.517ZM114.325 79H109.031L107.046 45.25H112.635L114.325 79ZM101.411 45.25L103.396 79H97.4549L95.7674 45.25H101.411ZM70.3125 5.87504C75.5321 5.881 80.5363 7.95713 84.2271 11.648C87.9179 15.3388 89.994 20.3429 90 25.5625V39.625H78.75V25.5625C78.75 21.7916 77.9062 18.0685 76.2803 14.6661C74.6544 11.2637 72.2878 8.26821 69.3538 5.8993C69.6716 5.88419 69.9908 5.87504 70.3125 5.87504ZM61.875 7.7784C65.2387 9.37717 68.0807 11.8962 70.0717 15.0436C72.0628 18.1911 73.1214 21.8382 73.125 25.5625V39.625H50.625V25.5625C50.6286 21.8382 51.6872 18.1911 53.6783 15.0436C55.6693 11.8962 58.5113 9.37717 61.875 7.7784ZM33.75 25.5625C33.756 20.3429 35.8321 15.3388 39.5229 11.648C43.2137 7.95713 48.2179 5.881 53.4375 5.87504C53.7592 5.87504 54.0784 5.88419 54.3962 5.8993C51.4622 8.26816 49.0955 11.2636 47.4696 14.666C45.8437 18.0685 44.9999 21.7916 45 25.5625V39.625H33.75V25.5625ZM67.7081 152.125H5.76914L11.1129 45.25H28.125V63.4325L20.9398 68.2225C20.5546 68.4794 20.2387 68.8273 20.0203 69.2355C19.8018 69.6437 19.6875 70.0996 19.6875 70.5625V93.0625C19.6875 93.8085 19.9838 94.5238 20.5113 95.0513C21.0387 95.5787 21.7541 95.875 22.5 95.875H39.375C40.1209 95.875 40.8363 95.5787 41.3637 95.0513C41.8912 94.5238 42.1875 93.8085 42.1875 93.0625V70.5625C42.1875 70.0996 42.0732 69.6437 41.8547 69.2355C41.6363 68.8273 41.3204 68.4794 40.9352 68.2225L33.75 63.4325V45.25H73.125V53.6875C73.125 54.4335 73.4213 55.1488 73.9488 55.6763C74.4762 56.2037 75.1916 56.5 75.9375 56.5C76.6834 56.5 77.3988 56.2037 77.9262 55.6763C78.4537 55.1488 78.75 54.4335 78.75 53.6875V45.25H90.1371L91.8246 79H75.9375C75.2289 79 74.5464 79.2674 74.0265 79.7488C73.5065 80.2302 73.1875 80.8902 73.1331 81.5967L67.7081 152.125ZM30.9375 68.3178L36.5625 72.0676V90.25H25.3125V72.0676L30.9375 68.3178ZM78.5419 84.625H135.208L140.4 152.125H73.3496L78.5419 84.625Z" fill="#515151"/>
</svg>
