<svg width="140" height="140" viewBox="0 0 140 140" fill="none" xmlns="http://www.w3.org/2000/svg">
<path d="M129.213 88.0233C127.288 88.0233 125.727 89.5842 125.727 91.51V122.468C125.72 128.243 121.042 132.923 115.267 132.928H17.4335C11.6586 132.923 6.9802 128.243 6.97339 122.468V31.6083C6.9802 25.8348 11.6586 21.155 17.4335 21.1482H48.3915C50.3174 21.1482 51.8782 19.5874 51.8782 17.6615C51.8782 15.737 50.3174 14.1748 48.3915 14.1748H17.4335C7.80966 14.1857 0.0108959 21.9845 0 31.6083V122.469C0.0108959 132.093 7.80966 139.892 17.4335 139.903H115.267C124.89 139.892 132.689 132.093 132.7 122.469V91.51C132.7 89.5842 131.139 88.0233 129.213 88.0233Z" fill="#515151"/>
<path d="M131.32 5.20117C125.193 -0.926431 115.258 -0.926431 109.131 5.20117L46.9258 67.406C46.4995 67.8323 46.1917 68.3608 46.031 68.941L37.8509 98.4731C37.5145 99.6839 37.8563 100.98 38.7443 101.87C39.6337 102.758 40.9303 103.1 42.1411 102.765L71.6732 94.5832C72.2534 94.4225 72.7819 94.1147 73.2082 93.6884L135.412 31.4822C141.53 25.3505 141.53 15.4243 135.412 9.29259L131.32 5.20117ZM54.523 69.6724L105.433 18.7612L121.852 35.18L70.9405 86.0912L54.523 69.6724ZM51.2433 76.2535L64.3607 89.3722L46.2162 94.3993L51.2433 76.2535ZM130.481 26.5517L126.783 30.2496L110.363 13.8294L114.062 10.1316C117.466 6.72796 122.985 6.72796 126.388 10.1316L130.481 14.223C133.879 17.6307 133.879 23.1454 130.481 26.5517Z" fill="#515151"/>
</svg>
