<svg width="30" height="29" viewBox="0 0 30 29" fill="none" xmlns="http://www.w3.org/2000/svg">
<path d="M29.8641 10.9031C29.5037 9.79825 28.5198 9.08439 27.3577 9.08439H19.8635L17.5036 1.9176C17.1408 0.815891 16.159 0.105774 15.0003 0.105774C14.9995 0.105774 11.4844 12.0205 11.4844 12.0205L14.9995 23.9352L21.0823 28.3774C22.0232 29.0645 23.2408 29.0667 24.1841 28.383C25.1275 27.6994 25.5045 26.5416 25.1445 25.4336L22.8191 18.2767H22.8504L28.9125 13.8498C29.851 13.1645 30.2245 12.0078 29.8641 10.9031Z" fill="#FF9A27"/>
<path d="M14.9896 0.105832C13.8261 0.110402 12.8447 0.829308 12.4895 1.93734L10.1984 9.08439H2.6418C1.47677 9.08439 0.492177 9.80066 0.133515 10.9091C-0.225205 12.0175 0.153141 13.1749 1.09743 13.8574L7.18618 18.2584L4.85482 25.4336C4.49481 26.5416 4.87175 27.6993 5.81516 28.383C6.75851 29.0666 7.9761 29.0644 8.91698 28.3773L14.9999 23.9351C15.0001 23.9352 15.0001 0.105774 15.0001 0.105774C14.9966 0.105774 14.993 0.105774 14.9896 0.105832Z" fill="#FFB820"/>
</svg>
