<svg width="32" height="32" viewBox="0 0 32 32" fill="none" xmlns="http://www.w3.org/2000/svg">
<path d="M30.6641 9.59013C29.8081 7.63438 28.5869 5.89275 27.0346 4.41394C26.8341 4.223 26.5171 4.23063 26.3261 4.43113C26.1353 4.6315 26.1429 4.94863 26.3433 5.13944C29.3448 7.99888 30.9979 11.8559 30.9979 16C30.9979 24.2699 24.2699 30.9979 15.9999 30.9979C7.73 30.9979 1.00206 24.2699 1.00206 16C1.00206 7.73013 7.73013 1.00206 16 1.00206C19.021 1.00206 21.9331 1.89619 24.4214 3.58763C24.6502 3.74319 24.9618 3.68375 25.1174 3.455C25.273 3.22613 25.2136 2.9145 24.9848 2.75894C22.3296 0.954063 19.2228 0 16 0C11.7262 0 7.70831 1.66425 4.68631 4.68631C1.66431 7.70831 0 11.7262 0 16C0 20.2738 1.66431 24.2917 4.68631 27.3137C7.70831 30.3358 11.7262 32 16 32C20.2738 32 24.2917 30.3358 27.3137 27.3137C30.3357 24.2917 32 20.2738 32 16C32 13.7717 31.5505 11.6151 30.6641 9.59013Z" fill="#E5E5E5"/>
<path d="M23.271 6.78458L13.635 11.2703C13.3842 11.387 13.2755 11.6851 13.3923 11.936C13.5091 12.1869 13.8072 12.2957 14.0579 12.1788L20.002 9.41171L17.1122 11.7511L10.4805 17.1196L6.8533 15.5326L11.9362 13.1665C12.187 13.0496 12.2957 12.7516 12.1789 12.5008C12.0622 12.2499 11.764 12.1411 11.5133 12.258L6.04205 14.805C5.75117 14.9403 5.56755 15.2365 5.57492 15.5571C5.58211 15.8709 5.77173 16.1533 6.05917 16.279L10.1093 18.0509L11.2955 25.168C11.3685 25.608 11.9644 25.7333 12.2088 25.3601L15.5735 20.2245L21.9367 23.194C22.4466 23.4321 23.0532 23.0682 23.0861 22.5086L23.9826 7.26802C23.9835 7.2539 23.9835 7.2394 23.9832 7.22521C23.9732 6.87052 23.5922 6.63608 23.271 6.78458ZM11.8764 22.5583L11.1011 17.9065L18.9992 11.5128L12.9543 18.2904C12.8999 18.3514 12.8595 18.4281 12.8408 18.5078L11.8764 22.5583ZM12.9408 22.4145L13.6733 19.3378L14.656 19.7964L12.9408 22.4145ZM15.2109 18.9495L14.1505 18.4547L19.3673 12.6056L18.6127 13.7573L15.2109 18.9495ZM22.1025 22.1656L16.1284 19.3777L22.872 9.08496L22.1025 22.1656Z" fill="#E5E5E5"/>
</svg>
