<svg width="123" height="113" viewBox="0 0 123 113" fill="none" xmlns="http://www.w3.org/2000/svg">
<g filter="url(#filter0_d)">
<g clip-path="url(#clip0)">
<path d="M104.001 54.9996C104.001 82.614 81.6152 104.999 54.0016 104.999C26.3872 104.999 4.00195 82.614 4.00195 54.9996C4.00195 27.3852 26.3872 5 54.0016 5C81.6152 5 104.001 27.3852 104.001 54.9996Z" fill="#699C8B"/>
<path d="M54.0016 101.093C27.0418 101.093 5.0693 79.7545 4.04315 53.0465C4.01797 53.695 4.00195 54.345 4.00195 54.9996C4.00195 82.6132 26.3872 104.999 54.0016 104.999C81.6152 104.999 104.001 82.6132 104.001 54.9996C104.001 54.345 103.984 53.695 103.959 53.0465C102.933 79.7545 80.9606 101.093 54.0016 101.093Z" fill="#548B79"/>
<path d="M67.1693 25.0363C66.6009 22.839 64.1756 19.7239 54.9868 19.7239C40.7901 19.7239 38.7684 21.8266 34.9903 18.1958C31.8028 15.1326 29.9305 29.8755 34.1808 34.5577C32.3872 41.1891 33.8223 47.8312 33.8223 47.8312H73.7656C73.7649 47.8312 77.1172 32.3162 67.1693 25.0363Z" fill="#515151"/>
<path d="M34.9896 21.7411C38.7684 25.3719 40.7894 23.2693 54.9861 23.2693C64.1756 23.2693 66.601 26.3836 67.1686 28.5816C72.4596 32.4527 73.9885 38.6531 74.2601 43.6106C74.5271 38.4822 73.8344 29.9137 67.1686 25.037C66.601 22.839 64.1756 19.7247 54.9861 19.7247C40.7894 19.7247 38.7684 21.8266 34.9896 18.1958C32.8946 16.1824 31.3687 21.8609 31.7746 27.3205C32.0691 23.2838 33.3554 20.1702 34.9896 21.7411Z" fill="#515151"/>
<path d="M37.8546 48.5284C37.8546 48.5284 36.1326 45.3745 32.6887 45.3745C29.2448 45.3745 26.8049 60.5158 37.8546 57.9919V48.5284Z" fill="#FFE4D1"/>
<path d="M69.7305 48.5284C69.7305 48.5284 71.4524 45.3745 74.8963 45.3745C78.341 45.3745 80.7801 60.5158 69.7305 57.9919V48.5284Z" fill="#FFE4D1"/>
<path d="M53.7927 28.2391C27.4074 28.2391 32.4519 71.5127 53.7927 71.5127C75.1327 71.5127 80.178 28.2391 53.7927 28.2391Z" fill="#FFEFE4"/>
<path d="M53.793 25.8839C53.793 25.8839 35.8457 23.3518 35.8457 46.3794C35.8457 46.3794 38.1055 36.8618 43.2896 34.2663C45.7043 33.057 46.5886 36.1202 53.793 36.1202C60.9966 36.1202 61.8816 33.057 64.2955 34.2663C69.4804 36.8618 71.7394 46.3794 71.7394 46.3794C71.7394 23.3518 53.793 25.8839 53.793 25.8839Z" fill="#515151"/>
<path d="M90.0989 89.5933C88.8165 86.4508 86.211 83.9316 82.8457 82.8253L66.6319 77.4978C65.1022 76.995 64.0631 75.5736 64.0486 73.9631L63.9906 67.4156C61.2807 69.8555 57.907 71.3676 53.9618 71.4027C50.0175 71.437 46.6178 69.9844 43.8644 67.5934L43.9201 73.9112C43.9346 75.5462 42.8894 77.0026 41.3353 77.513L25.1275 82.8284C21.7699 83.93 19.1667 86.4378 17.8789 89.5697C26.9807 99.0773 39.7987 104.999 54.0007 104.999C68.1898 104.999 80.9979 99.0872 90.0989 89.5933Z" fill="#515151"/>
<path d="M55.7479 104.966C56.0355 104.956 56.3231 104.947 56.6092 104.932C56.7786 104.924 56.9472 104.91 57.1158 104.9C57.3783 104.884 57.6407 104.87 57.9024 104.849C58.0794 104.835 58.2549 104.817 58.4319 104.802C58.6836 104.78 58.9354 104.759 59.1864 104.733C59.3672 104.715 59.5473 104.692 59.7273 104.671C59.9722 104.644 60.2164 104.617 60.4597 104.586C60.6428 104.562 60.8252 104.535 61.0068 104.509C61.2463 104.475 61.4859 104.442 61.7247 104.406C61.907 104.377 62.0878 104.345 62.2694 104.316C62.5067 104.276 62.744 104.238 62.9797 104.194C63.1605 104.162 63.3398 104.126 63.5206 104.091C63.7556 104.046 63.9898 104.001 64.2233 103.953C64.4026 103.916 64.5803 103.875 64.7589 103.837C64.9916 103.785 65.225 103.734 65.457 103.68C65.6332 103.639 65.8087 103.595 65.9841 103.552C66.2161 103.495 66.448 103.438 66.6799 103.377C66.8531 103.331 67.0255 103.283 67.198 103.237C67.4291 103.174 67.6603 103.11 67.8907 103.044C68.0601 102.995 68.2287 102.943 68.3981 102.893C68.6292 102.823 68.8604 102.754 69.09 102.681C69.2556 102.629 69.4204 102.575 69.5852 102.52C69.8164 102.445 70.0468 102.369 70.2764 102.289C70.4381 102.234 70.5984 102.176 70.7593 102.119C70.9905 102.038 71.2209 101.954 71.4506 101.869C71.6077 101.81 71.7649 101.75 71.9221 101.69C72.1517 101.601 72.3813 101.512 72.6102 101.42C72.7636 101.359 72.9169 101.295 73.0695 101.233C73.2999 101.137 73.5296 101.04 73.7584 100.942C73.9072 100.879 74.0545 100.814 74.2017 100.748C74.4329 100.647 74.6625 100.543 74.8914 100.438C75.0348 100.371 75.1783 100.305 75.3202 100.237C75.5521 100.128 75.7833 100.017 76.0129 99.9036C76.1502 99.8365 76.2868 99.7686 76.4234 99.6999C76.6561 99.5832 76.8872 99.4642 77.1176 99.3444C77.2496 99.275 77.3816 99.2055 77.5128 99.1353C77.7455 99.011 77.9767 98.8851 78.2071 98.7577C78.3337 98.6875 78.4604 98.6166 78.587 98.5448C78.819 98.4136 79.0509 98.2801 79.2805 98.1443C79.4019 98.0733 79.5232 98.0024 79.6445 97.9299C79.8779 97.7903 80.1106 97.6476 80.3418 97.5042C80.4562 97.4332 80.5707 97.3615 80.6843 97.2898C80.9193 97.141 81.1528 96.99 81.3847 96.8374C81.493 96.7664 81.6014 96.6962 81.709 96.6245C81.9447 96.4674 82.1789 96.3071 82.4116 96.1462C82.5131 96.0752 82.6153 96.0058 82.716 95.9348C82.9541 95.7678 83.1898 95.5976 83.424 95.4267C83.5179 95.3588 83.6117 95.2909 83.7048 95.2223C83.9451 95.0445 84.1832 94.8637 84.4204 94.6813C84.5051 94.6165 84.5906 94.5516 84.6752 94.486C84.9186 94.2968 85.1589 94.1046 85.3985 93.9115C85.4748 93.8497 85.5526 93.7887 85.6289 93.7261C85.8761 93.524 86.121 93.3187 86.3644 93.1112C86.43 93.0555 86.4964 93.0006 86.5612 92.9449C86.8145 92.7267 87.0648 92.5062 87.3135 92.2842C87.3676 92.2354 87.4226 92.1881 87.476 92.1392C87.7361 91.905 87.9925 91.6678 88.2473 91.4282C88.2885 91.3893 88.3305 91.3511 88.3717 91.313C88.6425 91.0566 88.9095 90.7965 89.175 90.534C89.1979 90.5104 89.2223 90.4883 89.246 90.4654C89.5321 90.18 89.8151 89.8924 90.0951 89.6002C90.0966 89.5987 90.0982 89.5971 90.0989 89.5964C89.7358 88.7053 89.262 87.8668 88.699 87.094C79.7078 95.7609 67.4772 101.093 54.0007 101.093C40.5144 101.093 28.2762 95.7533 19.2842 87.0734C18.7197 87.8439 18.2444 88.6809 17.8789 89.5697C17.8812 89.5727 17.885 89.5758 17.8873 89.5781C18.165 89.868 18.4465 90.1549 18.7311 90.4387C18.7631 90.4707 18.7967 90.502 18.8288 90.534C19.0851 90.7873 19.343 91.0391 19.6047 91.287C19.6573 91.3366 19.7107 91.3855 19.7634 91.4343C20.0067 91.6632 20.2516 91.8905 20.4996 92.1148C20.566 92.1751 20.6331 92.2331 20.7002 92.2934C20.936 92.5047 21.1733 92.7145 21.4136 92.9205C21.4914 92.9884 21.5715 93.054 21.6501 93.1204C21.8805 93.3165 22.1124 93.5118 22.3466 93.7033C22.4351 93.7765 22.5259 93.8475 22.6144 93.9192C22.8418 94.1023 23.0691 94.2846 23.2995 94.4639C23.3964 94.5402 23.4949 94.6134 23.5925 94.689C23.8168 94.8614 24.0426 95.0331 24.2708 95.2017C24.3753 95.2795 24.4821 95.3558 24.5874 95.4328C24.8102 95.5953 25.0337 95.7563 25.2588 95.915C25.3717 95.9943 25.4861 96.0722 25.5998 96.1507C25.8203 96.3041 26.0431 96.4559 26.2666 96.6055C26.3856 96.6848 26.5054 96.7626 26.6252 96.8412C26.8457 96.9862 27.0669 97.1296 27.2897 97.2715C27.4156 97.3508 27.5422 97.4294 27.6689 97.508C27.8886 97.6446 28.1091 97.7796 28.3303 97.9124C28.4623 97.9909 28.5951 98.0688 28.7271 98.1466C28.946 98.2755 29.1673 98.4029 29.3885 98.5288C29.5251 98.6066 29.6616 98.6822 29.799 98.7585C30.0195 98.8805 30.2407 99.0018 30.4635 99.1201C30.6039 99.1956 30.7458 99.2696 30.8869 99.3436C31.1082 99.4588 31.3294 99.5725 31.5522 99.6854C31.6979 99.7587 31.8452 99.8319 31.9924 99.9036C32.2129 100.012 32.4349 100.12 32.6569 100.224C32.808 100.296 32.959 100.367 33.1109 100.436C33.3321 100.538 33.5534 100.638 33.7761 100.737C33.9318 100.805 34.0874 100.874 34.2438 100.941C34.4651 101.037 34.6871 101.13 34.9106 101.222C35.0701 101.288 35.2311 101.354 35.392 101.419C35.6133 101.507 35.8353 101.594 36.0581 101.68C36.2221 101.743 36.3861 101.806 36.5517 101.867C36.7745 101.95 36.998 102.031 37.2216 102.111C37.3886 102.17 37.5565 102.23 37.7243 102.288C37.9479 102.365 38.1722 102.439 38.3972 102.513C38.5681 102.569 38.739 102.625 38.9107 102.679C39.135 102.75 39.3601 102.818 39.5851 102.886C39.7598 102.939 39.9338 102.991 40.11 103.042C40.3351 103.107 40.5617 103.169 40.7875 103.232C40.9653 103.28 41.1415 103.329 41.3193 103.376C41.5466 103.434 41.7747 103.491 42.0029 103.547C42.1821 103.592 42.3614 103.637 42.5415 103.679C42.7696 103.732 42.9993 103.782 43.2289 103.833C43.4112 103.872 43.5928 103.914 43.7759 103.952C44.0056 103.999 44.2367 104.043 44.4671 104.088C44.651 104.123 44.8349 104.16 45.0195 104.194C45.2514 104.236 45.4849 104.274 45.7183 104.313C45.9037 104.344 46.0884 104.376 46.2745 104.405C46.5103 104.442 46.7468 104.474 46.9833 104.507C47.1687 104.533 47.3533 104.561 47.5395 104.585C47.779 104.615 48.0209 104.642 48.2627 104.67C48.4466 104.691 48.6297 104.714 48.8143 104.733C49.0615 104.758 49.3102 104.779 49.559 104.801C49.7382 104.817 49.9175 104.834 50.0983 104.849C50.3585 104.87 50.6194 104.883 50.8811 104.9C51.0505 104.911 51.2206 104.924 51.3908 104.932C51.6814 104.947 51.9736 104.957 52.2651 104.966C52.4077 104.971 52.5489 104.979 52.6916 104.982C53.1264 104.994 53.5628 105 54.0007 105C54.4379 105 54.8743 104.994 55.3092 104.983C55.4557 104.979 55.6014 104.971 55.7479 104.966Z" fill="#3A554C"/>
<path d="M53.4045 91.6853C61.7182 91.6853 68.8097 86.4668 71.5921 79.1281L66.6307 77.4978C65.1011 76.995 64.0619 75.5729 64.0482 73.9631L63.9902 67.4156C61.2795 69.8554 57.9066 71.3676 53.9615 71.4027C50.0163 71.437 46.6167 69.9844 43.864 67.5934L43.9197 73.9112C43.9342 75.5462 42.889 77.0026 41.3349 77.513L35.3535 79.4745C38.2252 86.6301 45.2221 91.6853 53.4045 91.6853Z" fill="#FFE4D1"/>
<path d="M54.0016 8.90622C80.9606 8.90622 102.933 30.2447 103.959 56.9527C103.984 56.3042 104.001 55.6542 104.001 54.9996C104.001 27.386 81.6152 5 54.0016 5C26.3872 5 4.00195 27.386 4.00195 54.9996C4.00195 55.6542 4.01797 56.3042 4.04315 56.9527C5.0693 30.2447 27.0418 8.90622 54.0016 8.90622Z" fill="#7CB09F"/>
</g>
<g clip-path="url(#clip1)">
<path d="M111.485 16.3782L111.479 16.3649C111.363 16.1038 111.148 15.8977 110.883 15.7925L89.5645 7.36128C89.3336 7.26938 89.0787 7.25999 88.8411 7.33231C88.6869 7.38028 88.5405 7.44231 88.378 7.51471C79.5634 11.4418 75.5874 21.8073 79.5145 30.6218C83.4416 39.4364 93.8071 43.4124 102.622 39.4853C111.436 35.5582 115.412 25.1927 111.485 16.3782Z" fill="#515151"/>
<path d="M111.567 16.7965C111.569 16.3488 111.293 15.9448 110.878 15.7787L89.5596 7.34749C89.1413 7.18262 88.6652 7.28936 88.3594 7.61717C88.0572 7.93861 87.9781 8.4097 88.1567 8.81066L88.1668 8.83331C92.1807 17.3123 102.156 21.2578 110.876 17.8135C111.293 17.65 111.568 17.245 111.567 16.7965Z" fill="#656565"/>
<path d="M97.6974 17.77C93.6379 16.1477 90.1657 13.052 88.1679 8.83317L88.1578 8.81053C87.9792 8.40956 88.0583 7.93848 88.3592 7.61763C88.438 7.53301 88.5272 7.46452 88.6243 7.41009C88.5446 7.44244 88.464 7.47672 88.3788 7.5147C79.5642 11.4418 75.5882 21.8073 79.5153 30.6218C81.4786 35.0284 85.0507 38.2265 89.235 39.8315L97.6974 17.77Z" fill="#444343"/>
<path d="M100.096 11.5158L89.5587 7.34807C89.2475 7.22649 88.9055 7.25434 88.6237 7.41022C88.5266 7.46465 88.4374 7.53313 88.3586 7.61775C88.0577 7.9386 87.9786 8.40969 88.1572 8.81065L88.1679 8.83463C90.165 13.0521 93.6379 16.1492 97.6974 17.7715L100.096 11.5158Z" fill="#515151"/>
<path d="M98.9824 28.6731L96.6004 27.7594L97.1226 26.398L99.5052 27.3131C100.069 27.5295 100.702 27.2476 100.919 26.6834C101.135 26.1192 100.853 25.4864 100.289 25.27L97.9063 24.355L98.4285 22.9936L100.81 23.9073C101.375 24.1237 102.007 23.8418 102.224 23.2776C102.44 22.7134 102.158 22.0806 101.594 21.8642L98.1897 20.5583C97.9182 20.4542 97.6182 20.4617 97.3531 20.5798C97.088 20.6979 96.8805 20.9165 96.7777 21.1874L95.4725 24.59L95.4718 24.5919L95.471 24.5938L94.1659 27.9963C94.0581 28.2775 94.0734 28.5771 94.1874 28.8329C94.3013 29.0887 94.5125 29.3011 94.795 29.4084L98.1994 30.7142C98.7636 30.9307 99.3964 30.6488 99.6128 30.0846C99.8285 29.5223 99.5466 28.8895 98.9824 28.6731Z" fill="#FAFAFA"/>
<path d="M105.111 31.0251L102.728 30.1101L103.25 28.7487L105.634 29.6618C106.198 29.8782 106.83 29.5963 107.047 29.0321C107.263 28.4679 106.981 27.8351 106.417 27.6187L104.034 26.7056L104.557 25.3423L106.939 26.2573C107.504 26.4737 108.136 26.1918 108.353 25.6276C108.569 25.0634 108.287 24.4307 107.723 24.2143L104.319 22.9084C104.047 22.8042 103.747 22.8118 103.482 22.9299C103.217 23.048 103.009 23.2666 102.907 23.5375L101.601 26.9419L101.6 26.9438L101.599 26.9444L100.293 30.347C100.186 30.6281 100.201 30.9278 100.315 31.1836C100.429 31.4393 100.64 31.6518 100.923 31.759L104.327 33.0649C104.891 33.2813 105.524 32.9994 105.74 32.4352C105.956 31.8729 105.675 31.2415 105.111 31.0251Z" fill="#FAFAFA"/>
<path d="M93.4638 26.8998L92.3872 24.4833C93.6777 24.6316 94.9567 23.8973 95.4441 22.6297C96.0202 21.1277 95.2651 19.4365 93.7651 18.8611L92.0629 18.2082C91.7914 18.104 91.4914 18.1116 91.2263 18.2297C90.9612 18.3478 90.7537 18.5664 90.6508 18.8373L89.3546 22.2167L89.3368 22.2629L88.0398 25.6443C87.932 25.9254 87.9473 26.2251 88.0613 26.4808C88.1752 26.7366 88.3864 26.949 88.6689 27.0563C89.2331 27.2727 89.8659 26.9908 90.0823 26.4266L90.442 25.4888L91.4657 27.7867C91.7114 28.3382 92.3584 28.5864 92.9099 28.3407C93.4613 28.0982 93.7095 27.4512 93.4638 26.8998ZM92.4598 22.2669L91.7781 22.0054L92.3004 20.644L92.982 20.9055C93.3562 21.0501 93.5476 21.4726 93.4016 21.8473C93.257 22.2215 92.836 22.409 92.4598 22.2669Z" fill="#FAFAFA"/>
<path d="M88.6641 21.9815C88.8805 21.4173 88.598 20.7832 88.0344 20.5681L85.6511 19.655L86.174 18.2917L88.5566 19.2067C89.1208 19.4231 89.7535 19.1412 89.9699 18.577C90.1863 18.0128 89.9044 17.3801 89.3402 17.1637L85.9358 15.8578C85.6643 15.7536 85.3643 15.7612 85.0992 15.8793C84.8341 15.9974 84.6266 16.216 84.5238 16.4869L83.2179 19.8913L83.2166 19.8919L83.2172 19.8932L81.9107 23.2964C81.8028 23.5775 81.8182 23.8772 81.9322 24.1329C82.0461 24.3887 82.2573 24.6011 82.5398 24.7084C83.104 24.9248 83.7367 24.6429 83.9531 24.0787L84.8668 21.6967L87.2501 22.6098C87.8149 22.8276 88.4476 22.5457 88.6641 21.9815Z" fill="#FAFAFA"/>
<path d="M100.758 26.9641L95.3572 24.8923L94.1671 27.9976C94.0593 28.2788 94.0747 28.5785 94.1886 28.8342C94.3026 29.09 94.5138 29.3024 94.7962 29.4097L98.2007 30.7156C98.7649 30.932 99.3976 30.6501 99.614 30.0859C99.7219 29.8047 99.7065 29.5051 99.5926 29.2493C99.4786 28.9935 99.2674 28.7811 98.9849 28.6738L96.5997 27.76L97.1219 26.3986L99.5045 27.3136C99.9641 27.4888 100.47 27.3338 100.758 26.9641Z" fill="#DADADA"/>
<path d="M106.886 29.3149L101.483 27.2423L100.293 30.3477C100.185 30.6289 100.2 30.9286 100.314 31.1843C100.428 31.4401 100.639 31.6525 100.922 31.7598L104.326 33.0657C104.891 33.2821 105.523 33.0002 105.74 32.436C105.848 32.1548 105.832 31.8552 105.718 31.5994C105.604 31.3436 105.393 31.1312 105.111 31.0239L102.728 30.1089L103.249 28.7495L105.633 29.6625C106.093 29.8391 106.597 29.6846 106.886 29.3149Z" fill="#DADADA"/>
<path d="M93.7964 24.2942L89.2289 22.5422L88.0382 25.6463C87.9304 25.9274 87.9458 26.2271 88.0597 26.4829C88.1737 26.7386 88.3849 26.9511 88.6673 27.0583C89.2315 27.2747 89.8643 26.9928 90.0807 26.4286L90.4404 25.4908L91.4642 27.7887C91.7099 28.3402 92.3569 28.5884 92.9084 28.3427C93.4599 28.097 93.708 27.45 93.4623 26.8985L92.3858 24.4821C92.8709 24.5389 93.3558 24.4698 93.7964 24.2942Z" fill="#DADADA"/>
<path d="M88.5026 22.2628L83.1013 20.191L81.9099 23.2969C81.8021 23.5781 81.8175 23.8778 81.9314 24.1335C82.0454 24.3893 82.2566 24.6017 82.539 24.709C83.1032 24.9254 83.736 24.6435 83.9524 24.0793L84.8661 21.6973L87.2494 22.6104C87.7096 22.7869 88.2152 22.6319 88.5026 22.2628Z" fill="#DADADA"/>
</g>
</g>
<defs>
<filter id="filter0_d" x="0" y="0.392883" width="122.607" height="112.607" filterUnits="userSpaceOnUse" color-interpolation-filters="sRGB">
<feFlood flood-opacity="0" result="BackgroundImageFix"/>
<feColorMatrix in="SourceAlpha" type="matrix" values="0 0 0 0 0 0 0 0 0 0 0 0 0 0 0 0 0 0 127 0"/>
<feOffset dy="4"/>
<feGaussianBlur stdDeviation="2"/>
<feColorMatrix type="matrix" values="0 0 0 0 0 0 0 0 0 0 0 0 0 0 0 0 0 0 0.25 0"/>
<feBlend mode="normal" in2="BackgroundImageFix" result="effect1_dropShadow"/>
<feBlend mode="normal" in="SourceGraphic" in2="effect1_dropShadow" result="shape"/>
</filter>
<clipPath id="clip0">
<rect width="100" height="100" fill="white" transform="translate(4 5)"/>
</clipPath>
<clipPath id="clip1">
<rect width="35" height="35" fill="white" transform="translate(104.363 0.392883) rotate(65.9859)"/>
</clipPath>
</defs>
</svg>
